<svg id="visual" viewBox="0 0 960 540" width="960" height="540" xmlns="http://www.w3.org/2000/svg" xmlns:xlink="http://www.w3.org/1999/xlink" version="1.1"><rect x="0" y="0" width="960" height="540" fill="#002233"></rect><path d="M0 28L7.7 27.5C15.3 27 30.7 26 45.8 26C61 26 76 27 91.2 27.3C106.3 27.7 121.7 27.3 137 27.3C152.3 27.3 167.7 27.7 183 27.5C198.3 27.3 213.7 26.7 228.8 26C244 25.3 259 24.7 274.2 25C289.3 25.3 304.7 26.7 320 27.2C335.3 27.7 350.7 27.3 365.8 27C381 26.7 396 26.3 411.2 26.5C426.3 26.7 441.7 27.3 457 27.3C472.3 27.3 487.7 26.7 503 26.3C518.3 26 533.7 26 548.8 26C564 26 579 26 594.2 26C609.3 26 624.7 26 640 25.5C655.3 25 670.7 24 685.8 24.3C701 24.7 716 26.3 731.2 26.5C746.3 26.7 761.7 25.3 777 25.3C792.3 25.3 807.7 26.7 823 27.2C838.3 27.7 853.7 27.3 868.8 26.7C884 26 899 25 914.2 25C929.3 25 944.7 26 952.3 26.5L960 27L960 0L952.3 0C944.7 0 929.3 0 914.2 0C899 0 884 0 868.8 0C853.7 0 838.3 0 823 0C807.7 0 792.3 0 777 0C761.7 0 746.3 0 731.2 0C716 0 701 0 685.8 0C670.7 0 655.3 0 640 0C624.7 0 609.3 0 594.2 0C579 0 564 0 548.8 0C533.7 0 518.3 0 503 0C487.7 0 472.3 0 457 0C441.7 0 426.3 0 411.2 0C396 0 381 0 365.8 0C350.7 0 335.3 0 320 0C304.7 0 289.3 0 274.2 0C259 0 244 0 228.8 0C213.7 0 198.3 0 183 0C167.7 0 152.3 0 137 0C121.7 0 106.3 0 91.2 0C76 0 61 0 45.8 0C30.7 0 15.3 0 7.7 0L0 0Z" fill="#334c36" stroke-linecap="round" stroke-linejoin="miter"></path></svg>