<svg id="visual" viewBox="0 0 900 600" width="900" height="600" xmlns="http://www.w3.org/2000/svg" xmlns:xlink="http://www.w3.org/1999/xlink" version="1.1"><rect x="0" y="0" width="900" height="600" fill="#002233"></rect><path d="M0 271L7.8 280.7C15.7 290.3 31.3 309.7 47.2 310.2C63 310.7 79 292.3 94.8 288.8C110.7 285.3 126.3 296.7 142 300.3C157.7 304 173.3 300 189.2 298.5C205 297 221 298 236.8 296.3C252.7 294.7 268.3 290.3 284.2 290.8C300 291.3 316 296.7 331.8 300.3C347.7 304 363.3 306 379 303.3C394.7 300.7 410.3 293.3 426.2 289.8C442 286.3 458 286.7 473.8 286.7C489.7 286.7 505.3 286.3 521 290C536.7 293.7 552.3 301.3 568.2 308.2C584 315 600 321 615.8 320.8C631.7 320.7 647.3 314.3 663.2 308.2C679 302 695 296 710.8 298.8C726.7 301.7 742.3 313.3 758 315.8C773.7 318.3 789.3 311.7 805.2 310C821 308.3 837 311.7 852.8 315.2C868.7 318.7 884.3 322.3 892.2 324.2L900 326L900 0L892.2 0C884.3 0 868.7 0 852.8 0C837 0 821 0 805.2 0C789.3 0 773.7 0 758 0C742.3 0 726.7 0 710.8 0C695 0 679 0 663.2 0C647.3 0 631.7 0 615.8 0C600 0 584 0 568.2 0C552.3 0 536.7 0 521 0C505.3 0 489.7 0 473.8 0C458 0 442 0 426.2 0C410.3 0 394.7 0 379 0C363.3 0 347.7 0 331.8 0C316 0 300 0 284.2 0C268.3 0 252.7 0 236.8 0C221 0 205 0 189.2 0C173.3 0 157.7 0 142 0C126.3 0 110.7 0 94.8 0C79 0 63 0 47.2 0C31.3 0 15.7 0 7.8 0L0 0Z" fill="#334c36" stroke-linecap="round" stroke-linejoin="miter"></path></svg>