<svg id="visual" viewBox="0 0 900 600" width="900" height="600" xmlns="http://www.w3.org/2000/svg" xmlns:xlink="http://www.w3.org/1999/xlink" version="1.1"><rect x="0" y="0" width="900" height="600" fill="#002233"></rect><path d="M0 31L7.2 30.5C14.3 30 28.7 29 43 29.2C57.3 29.3 71.7 30.7 86 31C100.3 31.3 114.7 30.7 128.8 30.5C143 30.3 157 30.7 171.2 30.5C185.3 30.3 199.7 29.7 214 29C228.3 28.3 242.7 27.7 257 28.2C271.3 28.7 285.7 30.3 300 30.8C314.3 31.3 328.7 30.7 343 30.2C357.3 29.7 371.7 29.3 386 29.7C400.3 30 414.7 31 428.8 31C443 31 457 30 471.2 29.5C485.3 29 499.7 29 514 29C528.3 29 542.7 29 557 29C571.3 29 585.7 29 600 28.5C614.3 28 628.7 27 643 27.3C657.3 27.7 671.7 29.3 686 29.3C700.3 29.3 714.7 27.7 728.8 27.7C743 27.7 757 29.3 771.2 30C785.3 30.7 799.7 30.3 814 29.7C828.3 29 842.7 28 857 28C871.3 28 885.7 29 892.8 29.5L900 30L900 0L892.8 0C885.7 0 871.3 0 857 0C842.7 0 828.3 0 814 0C799.7 0 785.3 0 771.2 0C757 0 743 0 728.8 0C714.7 0 700.3 0 686 0C671.7 0 657.3 0 643 0C628.7 0 614.3 0 600 0C585.7 0 571.3 0 557 0C542.7 0 528.3 0 514 0C499.7 0 485.3 0 471.2 0C457 0 443 0 428.8 0C414.7 0 400.3 0 386 0C371.7 0 357.3 0 343 0C328.7 0 314.3 0 300 0C285.7 0 271.3 0 257 0C242.7 0 228.3 0 214 0C199.7 0 185.3 0 171.2 0C157 0 143 0 128.8 0C114.7 0 100.3 0 86 0C71.7 0 57.3 0 43 0C28.7 0 14.3 0 7.2 0L0 0Z" fill="#334c36" stroke-linecap="round" stroke-linejoin="miter"></path></svg>